<?xml version="1.0" encoding="UTF-8"?>
<svg id="Layer_1" data-name="Layer 1" xmlns="http://www.w3.org/2000/svg" viewBox="0 0 100 100">
  <defs>
    <style>
      .cls-1 {
        fill: #fff;
        stroke-width: 0px;
      }
    </style>
  </defs>
  <path class="cls-1" d="M50.1,39.67c5.71,0,10.34,4.65,10.32,10.38-.01,5.67-4.66,10.28-10.37,10.28-5.69,0-10.29-4.64-10.28-10.35,0-5.69,4.63-10.31,10.33-10.31Z"/>
  <path class="cls-1" d="M75.57,50c0-2.66,0-5.32,0-7.99-.01-2.41-.05-4.83-.38-7.23-.71-5.28-3.88-8.67-9.1-9.7-2.38-.48-4.81-.5-7.22-.51-6.69-.04-13.38-.15-20.06.08-1.49.06-2.96.15-4.43.38-4.76.78-8,3.81-9.11,8.5-.53,2.28-.57,4.6-.59,6.91-.05,7.15-.17,14.31.08,21.46.05,1.34.14,2.68.39,4,.69,3.7,2.55,6.56,6.06,8.16,1.76.81,3.65,1.12,5.56,1.26,3.02.22,6.05.16,9.08.22,5,.11,10-.02,14.99-.11,1.79-.04,3.58-.11,5.34-.47,4.68-.98,7.63-3.74,8.77-8.42.5-2.07.54-4.19.59-6.29.07-3.42.02-6.83.02-10.25h.02ZM50.07,66.12c-8.88,0-16.12-7.27-16.1-16.17.01-8.84,7.29-16.09,16.14-16.08,8.87.01,16.13,7.3,16.11,16.18-.02,8.85-7.29,16.08-16.15,16.07ZM66.75,37.11c-2.14,0-3.77-1.63-3.77-3.77s1.73-3.88,3.81-3.85c2.07.03,3.82,1.79,3.81,3.82-.01,2.13-1.71,3.8-3.85,3.8ZM75.57,50c0-2.66,0-5.32,0-7.99-.01-2.41-.05-4.83-.38-7.23-.71-5.28-3.88-8.67-9.1-9.7-2.38-.48-4.81-.5-7.22-.51-6.69-.04-13.38-.15-20.06.08-1.49.06-2.96.15-4.43.38-4.76.78-8,3.81-9.11,8.5-.53,2.28-.57,4.6-.59,6.91-.05,7.15-.17,14.31.08,21.46.05,1.34.14,2.68.39,4,.69,3.7,2.55,6.56,6.06,8.16,1.76.81,3.65,1.12,5.56,1.26,3.02.22,6.05.16,9.08.22,5,.11,10-.02,14.99-.11,1.79-.04,3.58-.11,5.34-.47,4.68-.98,7.63-3.74,8.77-8.42.5-2.07.54-4.19.59-6.29.07-3.42.02-6.83.02-10.25h.02ZM50.07,66.12c-8.88,0-16.12-7.27-16.1-16.17.01-8.84,7.29-16.09,16.14-16.08,8.87.01,16.13,7.3,16.11,16.18-.02,8.85-7.29,16.08-16.15,16.07ZM66.75,37.11c-2.14,0-3.77-1.63-3.77-3.77s1.73-3.88,3.81-3.85c2.07.03,3.82,1.79,3.81,3.82-.01,2.13-1.71,3.8-3.85,3.8ZM50,4C24.6,4,4,24.59,4,50s20.6,46,46,46,46-20.59,46-46S75.41,4,50,4ZM81.24,49.83v10.73c0,3.14-.2,6.26-1.28,9.25-2.11,5.84-6.29,9.32-12.28,10.71-1.91.44-3.85.56-5.81.63-6.6.23-13.2.08-19.81.1-2.94,0-5.89-.03-8.8-.59-7.27-1.4-11.86-5.67-13.66-12.89-.41-1.66-.57-3.36-.64-5.06-.2-4.69-.16-9.39-.19-14.08-.02-3.03.01-6.06.1-9.08.09-3.05.21-6.1,1.21-9.02,2.16-6.29,6.61-9.91,13.06-11.19,2.86-.56,5.78-.58,8.68-.6,5.49-.03,10.97-.03,16.46.01,3.08.02,6.17.06,9.22.69,7.08,1.48,11.98,6.5,13.25,13.6.35,1.93.5,3.86.5,5.82-.01,3.66-.01,7.31-.01,10.97ZM75.56,42.01c-.01-2.41-.05-4.83-.38-7.23-.71-5.28-3.88-8.67-9.1-9.7-2.38-.48-4.81-.5-7.22-.51-6.69-.04-13.38-.15-20.06.08-1.49.06-2.96.15-4.43.38-4.76.78-8,3.81-9.11,8.5-.53,2.28-.57,4.6-.59,6.91-.05,7.15-.17,14.31.08,21.46.05,1.34.14,2.68.39,4,.69,3.7,2.55,6.56,6.06,8.16,1.76.81,3.65,1.12,5.56,1.26,3.02.22,6.05.16,9.08.22,5,.11,10-.02,14.99-.11,1.79-.04,3.58-.11,5.34-.47,4.68-.98,7.63-3.74,8.77-8.42.5-2.07.54-4.19.59-6.29.07-3.42.02-6.83.02-10.25h.02c0-2.66,0-5.32,0-7.99ZM50.07,66.12c-8.88,0-16.12-7.27-16.1-16.17.01-8.84,7.29-16.09,16.14-16.08,8.87.01,16.13,7.3,16.11,16.18-.02,8.85-7.29,16.08-16.15,16.07ZM66.75,37.11c-2.14,0-3.77-1.63-3.77-3.77s1.73-3.88,3.81-3.85c2.07.03,3.82,1.79,3.81,3.82-.01,2.13-1.71,3.8-3.85,3.8Z"/>
</svg>