<?xml version="1.0" encoding="UTF-8"?>
<svg id="Layer_1" data-name="Layer 1" xmlns="http://www.w3.org/2000/svg" viewBox="0 0 100 100">
  <defs>
    <style>
      .cls-1 {
        fill: #fff;
        stroke-width: 0px;
      }
    </style>
  </defs>
  <path class="cls-1" d="M50,4C24.6,4,4,24.59,4,50s20.6,46,46,46,46-20.59,46-46S75.41,4,50,4ZM37.98,70.92c0,.79-.01.79-.81.79h-8.37c-.77,0-.79-.02-.79-.76-.01-10.06-.01-20.12,0-30.19,0-.74.02-.77.78-.77h8.32q.87,0,.87.91v30.02ZM33.01,35.79c-3.18,0-5.73-2.57-5.73-5.77-.01-3.2,2.55-5.75,5.76-5.74,3.14,0,5.73,2.6,5.73,5.74s-2.59,5.77-5.76,5.77ZM74.72,71c0,.56-.21.69-.72.69-2.81-.01-5.62-.01-8.43-.01-.8,0-.84-.03-.84-.85-.01-5.66-.01-11.32-.04-16.98-.01-1.23-.24-2.44-.79-3.58-.67-1.39-1.8-2.09-3.31-2.26-1.47-.16-2.9-.03-4.16.8-1.54,1-2.01,2.6-2.29,4.29-.17,1.05-.15,2.11-.15,3.17v14.55c0,.89-.01.89-.9.89-2.77,0-5.55,0-8.32.01-.57.01-.76-.15-.76-.74.01-10.09.01-20.18,0-30.26,0-.55.16-.74.72-.74,2.71.03,5.43.02,8.14,0,.53,0,.71.19.7.71-.03,1.13-.01,2.26-.01,3.55.76-1.21,1.58-2.14,2.59-2.88,2.29-1.67,4.88-2.27,7.68-2.1,1.45.08,2.87.27,4.24.77,2.7.97,4.46,2.87,5.44,5.53.66,1.76,1,3.59,1.08,5.47.27,6.65.04,13.31.13,19.97Z"/>
</svg>