<?xml version="1.0" encoding="UTF-8"?>
<svg id="Layer_1" data-name="Layer 1" xmlns="http://www.w3.org/2000/svg" viewBox="0 0 100 100">
  <defs>
    <style>
      .cls-1 {
        fill: #fff;
        stroke-width: 0px;
      }
    </style>
  </defs>
  <path class="cls-1" d="M58.74,79.8c0-5.24,0-10.49,0-15.73,0-1.07.02-1.08,1.08-1.08,2.34,0,4.69-.02,7.03.01.64,0,.94-.19,1.03-.85.57-3.77,1.16-7.54,1.76-11.31.12-.73-.34-.69-.8-.69-3.75,0-7.5,0-11.26,0q-1.39,0-1.39-1.37c0-2.65.03-5.29,0-7.94-.04-2.77,1.8-5.88,5.01-6.43.85-.15,1.69-.32,2.56-.31,2.37.02,4.74-.01,7.11.02.68,0,.89-.22.88-.91-.03-3.15-.03-6.29,0-9.44,0-.64-.2-.88-.81-.96-2.25-.29-4.49-.62-6.77-.68-2.24-.06-4.49-.18-6.71.18-3.23.51-6.16,1.69-8.65,3.92-3.01,2.71-4.48,6.15-5.05,10.12-.6,4.18-.29,8.37-.37,12.56-.03,1.24,0,1.24-1.23,1.24-2.74,0-5.48.02-8.22-.01-.7,0-.94.2-.94.93.03,3.67.03,7.34,0,11.01,0,.74.24.93.93.92,2.84-.03,5.68,0,8.52-.03.7,0,.95.21.94.94-.02,10.59-.01,21.18-.01,31.76,0,.85-.06.92-.9.77-5.58-1.01-10.86-2.86-15.78-5.75-5.82-3.42-10.56-8-14.44-13.51-2.47-3.52-4.35-7.35-5.72-11.45-1.4-4.19-2.16-8.49-2.46-12.89-.42-6.03.51-11.88,2.34-17.61,1.44-4.48,3.59-8.59,6.29-12.4,2.72-3.83,5.97-7.16,9.7-10.01,3.45-2.63,7.18-4.76,11.21-6.31,3.28-1.26,6.67-2.15,10.16-2.58,2.7-.33,5.4-.55,8.12-.4,4.28.24,8.46.94,12.55,2.3,5.22,1.74,9.93,4.39,14.21,7.84,4.58,3.7,8.3,8.16,11.23,13.3,1.93,3.39,3.41,6.97,4.43,10.74,1.31,4.83,1.84,9.75,1.59,14.74-.27,5.55-1.42,10.91-3.52,16.06-1.88,4.61-4.45,8.79-7.68,12.54-2.56,2.98-5.44,5.62-8.65,7.91-3.84,2.74-7.98,4.86-12.43,6.35-1.26.42-2.54.81-3.85,1.06-.99.19-1.07.14-1.07-.87,0-5.24,0-10.49,0-15.73Z"/>
</svg>