<?xml version="1.0" encoding="UTF-8"?>
<svg id="Layer_1" data-name="Layer 1" xmlns="http://www.w3.org/2000/svg" viewBox="0 0 100 100">
  <defs>
    <style>
      .cls-1 {
        fill: #fff;
        stroke-width: 0px;
      }
    </style>
  </defs>
  <path class="cls-1" d="M69.94,73.54c.09.12.29.24.18.41-.09.14-.29.06-.45.06-1,0-2,0-3,0s-2.01-.02-3.01,0c-.36.01-.59-.1-.8-.41-4.29-6.14-8.59-12.29-12.88-18.43-6.63-9.48-13.25-18.95-19.86-28.43-.11-.15-.36-.3-.24-.49.11-.18.37-.08.55-.08,1.96-.01,3.91,0,5.86-.01.4-.01.65.13.88.46,9.56,13.71,19.14,27.4,28.71,41.1,1.36,1.94,2.71,3.87,4.06,5.81Z"/>
  <path class="cls-1" d="M50,4C24.6,4,4,24.59,4,50s20.6,46,46,46,46-20.59,46-46S75.41,4,50,4ZM76.81,77.45c-.09.15-.33.07-.5.07-2.49.01-4.98.01-7.46.01s-4.94-.01-7.41.01c-.45,0-.72-.15-.97-.52-4.57-6.68-9.17-13.36-13.75-20.04-.5-.72-.51-.73-1.06-.09-4.99,5.79-9.97,11.59-14.95,17.38-.84.97-1.69,1.94-2.52,2.92-.2.25-.43.34-.74.34-1.29-.01-2.58,0-3.86-.01-.14,0-.32.06-.4-.08-.08-.15.09-.25.18-.35,4.42-5.15,8.84-10.28,13.26-15.42,2.36-2.74,4.71-5.49,7.08-8.22.28-.32.21-.54.01-.84-3.88-5.63-7.75-11.26-11.62-16.89-2.91-4.23-5.82-8.46-8.72-12.7-.1-.14-.3-.29-.19-.46.1-.16.33-.08.5-.08,4.98-.01,9.95,0,14.92-.01.41-.01.66.12.89.46,4.37,6.37,8.75,12.74,13.12,19.11.4.59.4.58.85.06,4.49-5.22,8.98-10.44,13.47-15.67,1.02-1.18,2.04-2.35,3.04-3.54.24-.28.48-.43.87-.42,1.25.02,2.5,0,3.75.01.15,0,.36-.08.43.1.07.17-.1.29-.21.41-2.73,3.17-5.46,6.34-8.19,9.51-3.7,4.3-7.39,8.61-11.1,12.9-.32.37-.19.61.03.93,2.81,4.08,5.62,8.17,8.42,12.25,3.93,5.72,7.87,11.44,11.8,17.16.27.4.55.79.82,1.2.1.15.33.31.21.51Z"/>
</svg>